<?xml version="1.0" standalone="no"?><!DOCTYPE svg PUBLIC "-//W3C//DTD SVG 1.1//EN" "http://www.w3.org/Graphics/SVG/1.1/DTD/svg11.dtd"><svg t="1667227764869" class="icon" viewBox="0 0 1024 1024" version="1.1" xmlns="http://www.w3.org/2000/svg" p-id="1572" xmlns:xlink="http://www.w3.org/1999/xlink" width="200" height="200"><path d="M768 128a170.666667 170.666667 0 0 1 170.666667 170.666667v426.666666a170.666667 170.666667 0 0 1-170.666667 170.666667H256a170.666667 170.666667 0 0 1-170.666667-170.666667V298.666667a170.666667 170.666667 0 0 1 170.666667-170.666667h512z m0 85.333333H256a85.333333 85.333333 0 0 0-85.12 78.933334L170.666667 298.666667v426.666666a85.333333 85.333333 0 0 0 78.933333 85.12L256 810.666667h17.578667l233.258666-233.173334a128 128 0 0 1 174.848-5.76l6.144 5.76 163.968 163.925334a85.333333 85.333333 0 0 0 1.28-9.728L853.333333 725.333333V298.666667a85.333333 85.333333 0 0 0-78.933333-85.12L768 213.333333z m-196.821333 420.949334l-4.010667 3.541333L394.325333 810.666667H768c9.685333 0 19.029333-1.621333 27.733333-4.608l-168.234666-168.234667a42.666667 42.666667 0 0 0-56.32-3.541333zM341.333333 298.666667a85.333333 85.333333 0 1 1 0 170.666666 85.333333 85.333333 0 0 1 0-170.666666z" fill="#5D6E7F" p-id="1573"></path></svg>