<?xml version="1.0" standalone="no"?><!DOCTYPE svg PUBLIC "-//W3C//DTD SVG 1.1//EN" "http://www.w3.org/Graphics/SVG/1.1/DTD/svg11.dtd"><svg t="1667227653393" class="icon" viewBox="0 0 1024 1024" version="1.1" xmlns="http://www.w3.org/2000/svg" p-id="1431" xmlns:xlink="http://www.w3.org/1999/xlink" width="200" height="200"><path d="M853.333333 554.666667a42.666667 42.666667 0 0 1 42.368 37.674666L896 597.333333v146.304c0 83.029333-72.96 148.181333-162.005333 152.149334L725.333333 896H298.666667c-90.026667 0-165.802667-62.549333-170.453334-144.384L128 743.637333V597.333333a42.666667 42.666667 0 0 1 85.034667-4.992L213.333333 597.333333v146.304c0 33.664 33.28 63.872 78.165334 66.816L298.666667 810.666667h426.666666c46.08 0 81.621333-28.501333 85.077334-61.781334L810.666667 743.68V597.333333a42.666667 42.666667 0 0 1 42.666666-42.666666z m-302.549333-100.266667V209.450667a38.784 38.784 0 0 0-77.568 0v244.906666H317.098667a21.333333 21.333333 0 0 0-14.421334 37.077334l187.52 172.373333a32 32 0 0 0 43.477334-0.128l184.704-172.373333a21.333333 21.333333 0 0 0-14.592-36.906667H550.826667z" fill="#5D6E7F" p-id="1432"></path></svg>